# xmcd
# Track frame offsets:
# 150
# 14012
# 34191
# 54886
# 68766
# 86650
# 101832
# 121490
# 133333
# 151683
# 174971
#
# Disc length: 2595 seconds
# Revision: 0
# Processed by: cddbd v1.4PL0 Copyright (c) Steve Scherf et al.
# Submitted via: VisiTrax 2.9.5.180 - For more info visit www.synapsa.com
#
DISCID=8d0a210b
DTITLE=Eddie Lee - Closing time
DYEAR=1997
DGENRE=
TTITLE0=Banks of the Mississippi
TTITLE1=Tired of losing you
TTITLE2=Comfort me
TTITLE3=San Antonio Rose
TTITLE4=Baby come back
TTITLE5=Pray for rain
TTITLE6=House of heartaches
TTITLE7=Starlight starbright
TTITLE8=Gone bad
TTITLE9=Hillbilly heaven
TTITLE10=(Foot stompin', butt huggin', belly rubbin') Honky-tonk band
EXTD=
EXTT0=
EXTT1=
EXTT2=
EXTT3=
EXTT4=
EXTT5=
EXTT6=
EXTT7=
EXTT8=
EXTT9=
EXTT10=
PLAYORDER=
